<svg width="590" height="54" viewBox="0 0 590 54" fill="none" xmlns="http://www.w3.org/2000/svg">
<path d="M27 0.5H526C540.636 0.5 552.5 12.3645 552.5 27C552.5 41.6355 540.636 53.5 526 53.5H27C12.3645 53.5 0.5 41.6355 0.5 27C0.5 12.3645 12.3645 0.5 27 0.5Z" fill="white" stroke="#F2EFE6"/>
<path d="M479 26C479 11.6406 490.641 0 505 0H564C578.359 0 590 11.6406 590 26V26C590 40.3594 578.359 52 564 52H505C490.641 52 479 40.3594 479 26V26Z" fill="#15762E"/>
<path d="M513.36 28.944C513.36 29.9573 512.992 30.7467 512.256 31.312C511.52 31.8773 510.528 32.16 509.28 32.16C508.64 32.16 508.048 32.112 507.504 32.016C506.96 31.92 506.507 31.7867 506.144 31.616V30.24C506.528 30.4107 507.003 30.5653 507.568 30.704C508.144 30.8427 508.736 30.912 509.344 30.912C510.197 30.912 510.837 30.7467 511.264 30.416C511.701 30.0853 511.92 29.6373 511.92 29.072C511.92 28.6987 511.84 28.384 511.68 28.128C511.52 27.872 511.243 27.6373 510.848 27.424C510.464 27.2 509.925 26.9653 509.232 26.72C508.261 26.368 507.525 25.936 507.024 25.424C506.533 24.912 506.288 24.2133 506.288 23.328C506.288 22.72 506.443 22.2027 506.752 21.776C507.061 21.3387 507.488 21.0027 508.032 20.768C508.587 20.5333 509.221 20.416 509.936 20.416C510.565 20.416 511.141 20.4747 511.664 20.592C512.187 20.7093 512.661 20.864 513.088 21.056L512.64 22.288C512.245 22.1173 511.813 21.9733 511.344 21.856C510.885 21.7387 510.405 21.68 509.904 21.68C509.189 21.68 508.651 21.8347 508.288 22.144C507.925 22.4427 507.744 22.8427 507.744 23.344C507.744 23.728 507.824 24.048 507.984 24.304C508.144 24.56 508.405 24.7893 508.768 24.992C509.131 25.1947 509.621 25.4133 510.24 25.648C510.912 25.8933 511.477 26.16 511.936 26.448C512.405 26.7253 512.757 27.0613 512.992 27.456C513.237 27.8507 513.36 28.3467 513.36 28.944ZM516.189 20.208C516.403 20.208 516.589 20.2827 516.749 20.432C516.92 20.5707 517.005 20.7947 517.005 21.104C517.005 21.4027 516.92 21.6267 516.749 21.776C516.589 21.9253 516.403 22 516.189 22C515.955 22 515.757 21.9253 515.597 21.776C515.437 21.6267 515.357 21.4027 515.357 21.104C515.357 20.7947 515.437 20.5707 515.597 20.432C515.757 20.2827 515.955 20.208 516.189 20.208ZM516.877 23.424V32H515.469V23.424H516.877ZM522.634 23.264C523.2 23.264 523.706 23.3707 524.154 23.584C524.613 23.7973 525.002 24.1227 525.322 24.56H525.402L525.594 23.424H526.714V32.144C526.714 33.3707 526.4 34.2933 525.77 34.912C525.152 35.5307 524.186 35.84 522.874 35.84C521.616 35.84 520.586 35.6587 519.786 35.296V34C520.629 34.448 521.685 34.672 522.954 34.672C523.69 34.672 524.266 34.4533 524.682 34.016C525.109 33.5893 525.322 33.0027 525.322 32.256V31.92C525.322 31.792 525.328 31.6107 525.338 31.376C525.349 31.1307 525.36 30.96 525.37 30.864H525.306C524.73 31.728 523.845 32.16 522.65 32.16C521.541 32.16 520.672 31.7707 520.042 30.992C519.424 30.2133 519.114 29.1253 519.114 27.728C519.114 26.3627 519.424 25.28 520.042 24.48C520.672 23.6693 521.536 23.264 522.634 23.264ZM522.826 24.448C522.112 24.448 521.557 24.736 521.162 25.312C520.768 25.8773 520.57 26.688 520.57 27.744C520.57 28.8 520.762 29.6107 521.146 30.176C521.541 30.7307 522.112 31.008 522.858 31.008C523.722 31.008 524.352 30.7787 524.746 30.32C525.141 29.8507 525.338 29.0987 525.338 28.064V27.728C525.338 26.5547 525.136 25.7173 524.73 25.216C524.325 24.704 523.69 24.448 522.826 24.448ZM533.566 23.264C534.59 23.264 535.363 23.5147 535.886 24.016C536.409 24.5067 536.67 25.3067 536.67 26.416V32H535.278V26.512C535.278 25.136 534.638 24.448 533.358 24.448C532.409 24.448 531.753 24.7147 531.39 25.248C531.027 25.7813 530.846 26.5493 530.846 27.552V32H529.438V23.424H530.574L530.782 24.592H530.862C531.139 24.144 531.523 23.8133 532.014 23.6C532.505 23.376 533.022 23.264 533.566 23.264ZM552.365 27.968C552.365 28.7573 552.205 29.472 551.885 30.112C551.565 30.7413 551.074 31.2427 550.413 31.616C549.762 31.9787 548.93 32.16 547.917 32.16C546.498 32.16 545.416 31.776 544.669 31.008C543.933 30.2293 543.565 29.2053 543.565 27.936V20.576H545.005V27.984C545.005 28.912 545.25 29.632 545.741 30.144C546.242 30.656 546.994 30.912 547.997 30.912C549.032 30.912 549.778 30.64 550.237 30.096C550.706 29.5413 550.941 28.832 550.941 27.968V20.576H552.365V27.968ZM559.268 23.264C560.324 23.264 561.172 23.632 561.812 24.368C562.463 25.104 562.788 26.2133 562.788 27.696C562.788 29.1573 562.463 30.2667 561.812 31.024C561.172 31.7813 560.319 32.16 559.252 32.16C558.591 32.16 558.041 32.0373 557.604 31.792C557.177 31.536 556.841 31.2427 556.596 30.912H556.5C556.521 31.0933 556.543 31.3227 556.564 31.6C556.585 31.8773 556.596 32.1173 556.596 32.32V35.84H555.188V23.424H556.34L556.532 24.592H556.596C556.852 24.2187 557.188 23.904 557.604 23.648C558.02 23.392 558.575 23.264 559.268 23.264ZM559.012 24.448C558.137 24.448 557.519 24.6933 557.156 25.184C556.804 25.6747 556.617 26.4213 556.596 27.424V27.696C556.596 28.752 556.767 29.568 557.108 30.144C557.46 30.7093 558.105 30.992 559.044 30.992C559.567 30.992 559.993 30.848 560.324 30.56C560.665 30.272 560.916 29.8827 561.076 29.392C561.247 28.8907 561.332 28.32 561.332 27.68C561.332 26.6987 561.14 25.9147 560.756 25.328C560.383 24.7413 559.801 24.448 559.012 24.448Z" fill="#FBFAF7"/>
</svg>
